<mxfile host="app.diagrams.net" modified="2024-06-07T11:29:31.780Z" agent="Mozilla/5.0 (Macintosh; Intel Mac OS X 10_15_7) AppleWebKit/537.36 (KHTML, like Gecko) Chrome/124.0.0.0 Safari/537.36" version="24.5.2" etag="thenrMOp-zCBHaLDhzaF" type="github">
  <diagram name="Page-1" id="8gMuEA1-Su5qBA7SvO4S">
    <mxGraphModel>
      <root>
        <mxCell id="0" />
        <mxCell id="1" parent="0" />
      </root>
    </mxGraphModel>
  </diagram>
</mxfile>
